<svg width="300" height="300" viewBox="0 0 300 300" fill="none" xmlns="http://www.w3.org/2000/svg">
<g clip-path="url(#clip0_1_2)">
<path d="M92.9456 27.8528C93.9915 27.8457 95.0373 27.8385 96.1149 27.8311C97.2671 27.8285 98.4193 27.8258 99.6064 27.823C100.816 27.8164 102.026 27.8099 103.273 27.8031C107.291 27.7833 111.31 27.7717 115.328 27.7617C116.712 27.7577 118.095 27.7536 119.479 27.7494C125.98 27.7303 132.481 27.7161 138.983 27.7078C146.485 27.698 153.987 27.6717 161.489 27.6313C167.288 27.6011 173.088 27.5863 178.888 27.583C182.351 27.5806 185.814 27.5717 189.277 27.5465C193.144 27.5189 197.01 27.5231 200.876 27.53C202.02 27.5172 203.164 27.5044 204.343 27.4912C211.708 27.5396 215.364 28.3898 220.645 33.6328C224.557 38.6308 225.144 41.35 225.114 47.5708C225.114 48.3514 225.114 49.132 225.114 49.9362C225.113 52.5226 225.105 55.1089 225.098 57.6953C225.096 59.4861 225.094 61.2768 225.093 63.0676C225.09 67.7858 225.08 72.5041 225.069 77.2223C225.058 82.0349 225.054 86.8475 225.049 91.6602C225.038 101.107 225.021 110.553 225 120C222.897 117.402 220.882 114.827 219 112.062C214.577 106.839 207.74 103.663 201.09 102.484C190.89 102.083 183.636 106.741 176 113C175.093 113.741 175.093 113.741 174.168 114.496C172.769 115.653 171.383 116.824 170 118C169.34 116.68 168.68 115.36 168 114C160.991 114.738 154.53 117.128 148.875 121.312C146.49 124.73 146.6 126.92 147 131C144.268 129.985 142.012 129.008 139.625 127.312C135.508 125.254 131.876 126.408 127.654 127.741C125.059 128.67 122.499 129.667 119.938 130.688C119.065 131.014 118.193 131.341 117.295 131.678C111.652 133.912 107.67 136.08 104 141C104.333 145.183 105.542 148.807 107.066 152.695C107.469 153.741 107.872 154.786 108.287 155.863C109.141 158.046 109.995 160.228 110.85 162.41C111.452 163.974 111.452 163.974 112.066 165.57C112.437 166.517 112.808 167.463 113.19 168.438C114 171 114 171 114 175C111.75 174.586 111.75 174.586 109 173C107.261 170.033 106.161 166.854 105 163.625C104.313 161.81 103.626 159.995 102.938 158.18C102.609 157.295 102.28 156.41 101.941 155.499C100.704 152.214 99.3649 148.984 98 145.75C97.6081 144.817 97.2163 143.883 96.8125 142.922C96.5444 142.288 96.2763 141.653 96 141C92.0569 141.563 88.5671 142.382 84.875 143.875C83.6336 144.366 83.6336 144.366 82.3672 144.867C79.9757 146.012 78.0924 147.385 76 149C75.9065 134.892 75.8362 120.784 75.7928 106.675C75.7719 100.124 75.7436 93.5734 75.6982 87.0225C75.6548 80.7007 75.6309 74.379 75.6205 68.0571C75.6131 65.6449 75.5987 63.2328 75.5771 60.8207C75.5481 57.4426 75.544 54.0653 75.5459 50.687C75.5315 49.6894 75.5171 48.6917 75.5023 47.6638C75.5433 40.7722 76.7167 37.3068 81.6328 32.3555C85.7639 29.122 87.7461 27.8772 92.9456 27.8528Z" fill="#231816"/>
<path d="M224 145C224.33 145 224.66 145 225 145C225.07 159.76 225.123 174.52 225.155 189.28C225.171 196.134 225.192 202.988 225.226 209.841C225.259 216.455 225.277 223.068 225.285 229.682C225.29 232.206 225.301 234.73 225.317 237.253C225.339 240.787 225.342 244.32 225.341 247.854C225.351 248.898 225.362 249.943 225.373 251.019C225.346 257.37 224.767 262.001 220.281 266.863C219.693 267.342 219.106 267.82 218.5 268.312C217.912 268.804 217.324 269.295 216.719 269.801C213.54 272.019 210.722 272.129 206.972 272.147C205.414 272.158 205.414 272.158 203.824 272.169C202.685 272.172 201.546 272.174 200.372 272.177C199.172 272.184 197.971 272.19 196.735 272.197C192.754 272.217 188.774 272.228 184.793 272.238C183.421 272.242 182.05 272.246 180.678 272.251C174.235 272.27 167.791 272.284 161.348 272.292C153.915 272.302 146.482 272.328 139.049 272.369C133.3 272.399 127.551 272.414 121.803 272.417C118.371 272.419 114.939 272.428 111.507 272.453C107.677 272.478 103.847 272.477 100.016 272.47C98.8832 272.483 97.7499 272.496 96.5824 272.509C89.2525 272.46 85.6123 271.587 80.3555 266.367C75.8739 260.642 75.8739 260.642 75.8797 256.001C75.8784 255.165 75.877 254.33 75.8756 253.468C75.8792 252.55 75.8828 251.631 75.8865 250.685C75.8863 249.719 75.8862 248.753 75.886 247.758C75.8867 244.555 75.8945 241.352 75.9023 238.148C75.9042 235.932 75.9056 233.715 75.9066 231.498C75.9105 225.655 75.9203 219.813 75.9313 213.97C75.9416 208.011 75.9461 202.053 75.9512 196.094C75.9619 184.396 75.979 172.698 76 161C77.9123 163.868 79.0143 166.381 80.2422 169.586C80.6689 170.682 81.0955 171.777 81.5352 172.906C82.4247 175.209 83.3102 177.514 84.1914 179.82C84.8353 181.468 84.8353 181.468 85.4922 183.148C85.8775 184.151 86.2627 185.153 86.6597 186.185C90.0315 193.267 94.8385 196.344 102 199C109.054 200.024 115.627 198.105 122 195C124.883 192.796 127.46 190.476 130.039 187.926C132 186 132 186 134 185C134.495 186.98 134.495 186.98 135 189C147.615 186.002 147.615 186.002 157 178C157.256 174.985 156.773 172.989 156 170C159.077 171.086 161.253 172.193 163.875 174.188C167.886 176.514 169.57 176.166 174 175C178.03 173.61 180.422 172.713 183.125 169.375C187.15 166.05 190.557 166.509 195.648 166.285C204.461 165.535 211.041 161.342 217 155C219.62 151.844 222.161 148.679 224 145Z" fill="#241816"/>
<path d="M209.438 106.562C217.47 111.465 222.067 118.201 225 127C226.017 137.016 223.654 144.627 217.812 152.75C212.968 158.624 206.556 163.426 199 165C194.484 165.293 190.373 165.237 186 164C185.671 164.459 185.343 164.918 185.004 165.391C181.193 170.307 177.132 173.484 171 175C168.097 174.489 165.998 173.545 163.547 171.934C162.928 171.531 162.309 171.128 161.672 170.713C161.038 170.292 160.403 169.871 159.75 169.437C159.1 169.013 158.451 168.588 157.781 168.15C156.184 167.105 154.592 166.053 153 165C153.99 168.96 154.98 172.92 156 177C150.291 182.709 144.721 184.845 137 187C136.34 185.02 135.68 183.04 135 181C134.34 181 133.68 181 133 181C132.752 181.577 132.505 182.155 132.25 182.75C128.604 189.313 121.645 193.942 114.684 196.375C108.449 197.827 102.494 198.155 96.625 195.437C88.4201 187.819 85.2951 179.887 81.625 169.562C81.0756 168.052 80.5248 166.542 79.9727 165.033C78.6325 161.361 77.3112 157.683 76 154C79.6149 149.284 82.5612 146.173 88.25 144C89.8046 143.381 89.8046 143.381 91.3906 142.75C94 142 94 142 96 143C96.9072 145.069 97.7231 147.178 98.4961 149.301C98.7303 149.934 98.9645 150.566 99.2058 151.218C99.9565 153.247 100.698 155.279 101.438 157.312C102.408 159.978 103.387 162.64 104.371 165.301C104.803 166.488 105.236 167.676 105.681 168.9C106.877 171.711 107.912 173.785 110 176C113.102 176.809 113.102 176.809 116 177C114.614 168.456 111.834 160.794 108.658 152.771C108.303 151.84 107.948 150.909 107.582 149.949C107.254 149.117 106.927 148.286 106.589 147.428C105.889 144.543 106.095 142.816 107 140C111.376 135.501 116.124 133.373 121.938 131.187C122.71 130.876 123.483 130.565 124.279 130.244C128.976 128.438 132.906 127.314 138 128C141.309 129.75 141.309 129.75 144.438 132C145.488 132.742 146.539 133.485 147.621 134.25C148.406 134.827 149.191 135.405 150 136C150 132.39 149.039 129.442 148 126C153.001 121.145 157.205 117.812 164 116C166.109 116.125 166.109 116.125 168 117C169.25 119.562 169.25 119.562 170 122C170.568 121.336 171.137 120.672 171.723 119.988C181.469 108.843 193.896 99.4621 209.438 106.562Z" fill="#0E0D0C"/>
<path d="M207 52C207.694 52.4241 208.387 52.8482 209.102 53.2851C217.506 58.9351 222.032 67.5037 225 77C225.48 80.4811 225.472 83.8741 225.391 87.3828C225.385 88.3231 225.379 89.2634 225.373 90.2321C225.351 93.197 225.301 96.1605 225.25 99.125C225.23 101.151 225.212 103.177 225.195 105.203C225.152 110.136 225.083 115.068 225 120C222.897 117.402 220.882 114.827 219 112.062C214.577 106.839 207.74 103.663 201.09 102.484C190.89 102.083 183.636 106.741 176 113C175.093 113.741 175.093 113.741 174.168 114.496C172.769 115.653 171.383 116.824 170 118C169.34 116.68 168.68 115.36 168 114C160.991 114.738 154.53 117.128 148.875 121.312C146.49 124.73 146.6 126.92 147 131C144.268 129.985 142.012 129.008 139.625 127.312C135.508 125.254 131.876 126.408 127.654 127.741C125.059 128.67 122.499 129.667 119.938 130.687C119.065 131.014 118.193 131.341 117.295 131.678C111.652 133.912 107.67 136.08 104 141C104.333 145.183 105.542 148.807 107.066 152.695C107.469 153.741 107.872 154.786 108.287 155.863C109.141 158.046 109.995 160.228 110.85 162.41C111.251 163.453 111.653 164.496 112.066 165.57C112.437 166.517 112.808 167.463 113.19 168.438C114 171 114 171 114 175C111.75 174.586 111.75 174.586 109 173C107.261 170.033 106.161 166.854 105 163.625C104.313 161.81 103.626 159.995 102.938 158.18C102.609 157.295 102.28 156.41 101.941 155.499C100.704 152.214 99.3649 148.984 98 145.75C97.6081 144.817 97.2163 143.883 96.8125 142.922C96.5444 142.288 96.2763 141.653 96 141C92.535 141.495 92.535 141.495 89 142C90.8924 135.612 93.385 129.965 96.6875 124.187C97.3528 123.011 97.3528 123.011 98.0315 121.812C109.908 101.032 124.903 81.598 144 67C144.651 66.4715 145.302 65.943 145.973 65.3984C161.657 52.944 187.818 39.434 207 52Z" fill="#E50113"/>
<path d="M76 161C77.9123 163.868 79.0143 166.381 80.2422 169.586C80.6689 170.682 81.0956 171.777 81.5352 172.906C82.4248 175.209 83.3102 177.514 84.1914 179.82C84.8353 181.468 84.8353 181.468 85.4922 183.148C86.0701 184.652 86.0701 184.652 86.6597 186.185C90.0315 193.267 94.8385 196.344 102 199C109.054 200.024 115.627 198.105 122 195C124.883 192.796 127.46 190.476 130.039 187.926C132 186 132 186 134 185C134.495 186.98 134.495 186.98 135 189C147.615 186.002 147.615 186.002 157 178C157.256 174.985 156.773 172.989 156 170C159.077 171.086 161.253 172.193 163.875 174.188C167.886 176.514 169.57 176.166 174 175C178.03 173.61 180.422 172.713 183.125 169.375C187.133 166.064 190.478 166.498 195.551 166.312C200.741 165.842 205.245 164.049 210 162C209.437 167.152 206.951 171.14 204.438 175.562C203.762 176.761 203.762 176.761 203.073 177.984C197.194 188.308 190.626 197.878 183 207C182.562 207.534 182.123 208.068 181.672 208.618C165.707 228.042 144.086 248.582 118 252C109.195 252.723 101.611 252.809 94 248C93.3039 247.576 92.6078 247.152 91.8906 246.715C83.2228 240.866 78.5766 231.962 76 222C75.4986 217.182 75.5312 212.421 75.6094 207.582C75.6169 206.23 75.6226 204.878 75.6265 203.526C75.6416 200.006 75.6808 196.487 75.7254 192.967C75.7666 189.361 75.7846 185.754 75.8047 182.146C75.8473 175.097 75.9154 168.049 76 161Z" fill="#E50112"/>
<path d="M210.637 109.383C216.295 113.255 221.617 119.12 223 126C223.755 133.898 224.161 141.556 219 148C213.047 154.371 207.978 156.977 199.25 157.5C192.583 157.359 188.012 155.37 183 151C176.548 143.37 174.452 136.443 174.629 126.516C175.272 120.419 177.489 116.387 181.902 112.191C190.985 104.922 200.417 103.756 210.637 109.383Z" fill="#F6E242"/>
<path d="M167 119C168.257 121.441 169.213 123.685 170.129 126.254C170.405 126.988 170.68 127.722 170.965 128.479C171.846 130.835 172.704 133.198 173.562 135.562C174.144 137.129 174.726 138.695 175.311 140.26C176.64 143.83 177.957 147.405 179.255 150.988C179.771 152.381 180.305 153.767 180.853 155.148C182.252 158.694 183 161.136 183 165C179.461 166.623 177.826 167.219 174 167C168.399 164.306 163.477 160.737 158.438 157.125C157.035 156.15 155.631 155.177 154.225 154.207C150.796 151.833 147.392 149.426 144 147C144.273 147.736 144.545 148.473 144.826 149.231C146.057 152.569 147.279 155.909 148.5 159.25C148.929 160.409 149.359 161.568 149.801 162.762C150.207 163.877 150.613 164.992 151.031 166.141C151.408 167.167 151.785 168.193 152.174 169.251C153 172 153 172 153 176C150.03 176.99 147.06 177.98 144 179C140.386 171.144 137.21 163.132 134.089 155.069C133.484 153.514 132.874 151.96 132.259 150.409C131.362 148.147 130.482 145.879 129.605 143.609C129.328 142.92 129.052 142.23 128.766 141.519C127.303 137.668 126.503 134.932 128 131C130.603 129.41 132.246 128.927 135.286 129.222C138.726 130.208 141.197 131.835 144.176 133.816C144.746 134.192 145.316 134.568 145.903 134.956C147.711 136.15 149.512 137.356 151.312 138.562C152.542 139.378 153.772 140.192 155.002 141.006C158.007 142.996 161.005 144.995 164 147C164 143.834 163.4 142.105 162.25 139.184C161.889 138.255 161.528 137.326 161.156 136.369C160.775 135.402 160.393 134.434 160 133.437C159.247 131.521 158.497 129.603 157.75 127.684C157.415 126.833 157.08 125.983 156.734 125.107C156 123 156 123 156 121C163.564 117.364 163.564 117.364 167 119Z" fill="#F9DF14"/>
<path d="M124 134C125.596 137.881 127.16 141.773 128.7 145.676C129.225 146.997 129.759 148.315 130.3 149.629C133.897 158.374 136.278 166.387 135 176C132.061 182.331 127.091 186.431 120.625 188.812C115.546 190.284 110.912 191.294 105.863 189.051C98.1376 184.524 95.1211 178.561 92 170.438C91.6526 169.552 91.3052 168.666 90.9473 167.753C88.4147 161.236 86.0642 154.682 84 148C90.303 144.97 90.303 144.97 92.9563 145.085C95 146 95 146 96.3845 148.62C96.7926 149.763 97.2007 150.905 97.6211 152.082C97.9611 152.998 97.9611 152.998 98.3079 153.932C99.033 155.887 99.7375 157.849 100.438 159.812C101.356 162.388 102.295 164.956 103.246 167.52C103.655 168.665 104.064 169.811 104.486 170.991C106.19 174.378 107.853 175.933 111 178C114.899 178.581 118.169 177.499 121.5 175.5C123.745 171.758 123.537 168.206 123 164C121.755 159.962 120.119 156.124 118.438 152.25C117.57 150.239 116.714 148.224 115.871 146.203C115.489 145.323 115.107 144.443 114.713 143.536C113.883 140.584 114.024 138.892 115 136C118.277 134.14 120.166 134 124 134Z" fill="#F9DF14"/>
<path d="M203 117C207.597 119.894 210.252 122.853 212 128C212.676 133.113 212.579 136.843 210.25 141.5C207.658 144.381 205.692 145.675 201.887 146.406C196.337 146.643 193.502 145.544 189.41 141.801C185.783 137.168 185.517 132.357 185.609 126.668C186.229 122.435 187.826 120.805 191 118C195.08 116.64 198.738 116.359 203 117Z" fill="#10100E"/>
<path d="M167 119C168.257 121.441 169.213 123.685 170.129 126.254C170.405 126.988 170.68 127.722 170.965 128.479C171.846 130.835 172.704 133.198 173.562 135.562C174.144 137.129 174.726 138.695 175.311 140.26C176.64 143.83 177.957 147.405 179.255 150.988C179.771 152.381 180.305 153.767 180.853 155.148C182.252 158.694 183 161.136 183 165C179.461 166.623 177.826 167.219 174 167C168.399 164.306 163.477 160.737 158.438 157.125C157.035 156.15 155.631 155.177 154.225 154.207C150.796 151.833 147.392 149.426 144 147C144.273 147.736 144.545 148.473 144.826 149.231C146.057 152.569 147.279 155.909 148.5 159.25C148.929 160.409 149.359 161.568 149.801 162.762C150.207 163.877 150.613 164.992 151.031 166.141C151.408 167.167 151.785 168.193 152.174 169.251C153 172 153 172 153 176C150.03 176.99 147.06 177.98 144 179C140.386 171.144 137.21 163.132 134.089 155.069C133.484 153.514 132.874 151.96 132.259 150.409C131.362 148.147 130.482 145.879 129.605 143.609C129.328 142.92 129.052 142.23 128.766 141.519C127.303 137.668 126.503 134.932 128 131C130.603 129.41 132.246 128.927 135.286 129.222C138.726 130.208 141.197 131.835 144.176 133.816C144.746 134.192 145.316 134.568 145.903 134.956C147.711 136.15 149.512 137.356 151.312 138.562C152.542 139.378 153.772 140.192 155.002 141.006C158.007 142.996 161.005 144.995 164 147C164 143.834 163.4 142.105 162.25 139.184C161.889 138.255 161.528 137.326 161.156 136.369C160.775 135.402 160.393 134.434 160 133.437C159.247 131.521 158.497 129.603 157.75 127.684C157.415 126.833 157.08 125.983 156.734 125.107C156 123 156 123 156 121C163.564 117.364 163.564 117.364 167 119ZM158 122C159.983 129.065 162.407 135.837 165.188 142.625C165.556 143.534 165.924 144.443 166.303 145.379C167.198 147.588 168.097 149.795 169 152C165.354 149.626 161.708 147.25 158.062 144.875C157.041 144.21 156.019 143.545 154.967 142.859C153.958 142.202 152.949 141.545 151.91 140.867C150.911 140.218 149.911 139.57 148.881 138.901C147.035 137.683 145.205 136.441 143.396 135.169C142.614 134.621 141.833 134.073 141.027 133.508C140.353 133.022 139.679 132.536 138.984 132.036C135.396 130.163 132.798 130.915 129 132C127.762 133.928 127.762 133.928 128.487 135.873C128.774 136.632 129.06 137.392 129.355 138.174C129.836 139.465 129.836 139.465 130.326 140.783C130.681 141.713 131.036 142.643 131.402 143.602C131.937 145.029 131.937 145.029 132.483 146.485C133.627 149.535 134.782 152.58 135.938 155.625C136.714 157.687 137.489 159.75 138.264 161.812C140.168 166.878 142.081 171.94 144 177C146.763 176.477 149.326 175.891 152 175C149.962 167.806 147.518 160.843 144.812 153.875C144.26 152.44 144.26 152.44 143.697 150.977C142.801 148.65 141.902 146.324 141 144C146.468 147.427 151.861 150.883 157.125 154.617C158.039 155.254 158.952 155.892 159.894 156.548C161.737 157.836 163.568 159.141 165.385 160.463C171 164.439 171 164.439 177.645 164.906C178.752 164.607 179.859 164.308 181 164C180.419 158.333 178.901 153.517 176.84 148.223C176.376 147.006 176.376 147.006 175.902 145.764C174.921 143.194 173.929 140.628 172.938 138.062C172.267 136.312 171.597 134.561 170.928 132.811C169.293 128.537 167.649 124.268 166 120C162.233 120 161.088 120.235 158 122Z" fill="#EBE7C0"/>
<path d="M124 134C125.596 137.881 127.16 141.773 128.7 145.676C129.225 146.997 129.759 148.315 130.3 149.629C133.897 158.374 136.278 166.387 135 176C132.061 182.331 127.091 186.431 120.625 188.812C115.546 190.284 110.912 191.294 105.863 189.051C98.1376 184.524 95.1211 178.561 92 170.438C91.6526 169.552 91.3052 168.666 90.9473 167.753C88.4147 161.236 86.0642 154.682 84 148C90.303 144.97 90.303 144.97 92.9563 145.085C95 146 95 146 96.3845 148.62C96.7926 149.763 97.2007 150.905 97.6211 152.082C97.9611 152.998 97.9611 152.998 98.3079 153.932C99.033 155.887 99.7375 157.849 100.438 159.812C101.356 162.388 102.295 164.956 103.246 167.52C103.655 168.665 104.064 169.811 104.486 170.991C106.19 174.378 107.853 175.933 111 178C114.899 178.581 118.169 177.499 121.5 175.5C123.745 171.758 123.537 168.206 123 164C121.755 159.962 120.119 156.124 118.438 152.25C117.57 150.239 116.714 148.224 115.871 146.203C115.489 145.323 115.107 144.443 114.713 143.536C113.883 140.584 114.024 138.892 115 136C118.277 134.14 120.166 134 124 134ZM115 138C116.103 141.167 117.207 144.334 118.312 147.5C118.776 148.83 118.776 148.83 119.248 150.188C120.684 154.299 122.14 158.394 123.707 162.457C125.424 167.163 125.84 170.152 123.75 174.75C121.825 177.226 120.989 178.111 118 179C111.066 179.66 111.066 179.66 107.434 177.41C104.479 174.484 103.438 171.955 102 168.062C101.754 167.41 101.507 166.757 101.253 166.084C100.745 164.733 100.242 163.379 99.7451 162.023C98.5781 158.854 97.3471 155.711 96.125 152.562C95.4156 150.709 94.7069 148.855 94 147C91.6569 147.256 89.3216 147.593 87 148C85.7018 150.039 85.7018 150.039 86.7092 152.579C87.9797 156.1 89.2603 159.616 90.5625 163.125C90.9937 164.337 91.4249 165.548 91.8691 166.797C94.7834 174.7 97.9196 181.269 104.188 187C110.703 189.317 117.982 188.735 124.285 185.977C129.16 183.201 132.103 179.193 134 174C134.848 165.514 132.137 158.893 129.062 151.062C128.36 149.217 128.36 149.217 127.643 147.334C125.506 141.588 125.506 141.588 123 136C119.233 136 118.088 136.235 115 138Z" fill="#EDE8C1"/>
<path d="M197 125C200.902 128.104 203.201 131.36 205 136C205.312 139.25 205.312 139.25 205 142C203 144 203 144 199.187 144.375C196.173 144.277 194.936 143.966 192.187 142.5C188.288 138.044 186.906 133.973 187.187 128.062C187.456 127.052 187.724 126.041 188 125C191.225 123.388 193.562 124.184 197 125Z" fill="#E60819"/>
<path d="M197 125C200.902 128.104 203.201 131.36 205 136C205.312 139.25 205.312 139.25 205 142C203 144 203 144 199.187 144.375C196.173 144.277 194.936 143.966 192.187 142.5C188.288 138.044 186.906 133.973 187.187 128.062C187.456 127.052 187.724 126.041 188 125C191.225 123.388 193.562 124.184 197 125ZM190 127C189.58 133.091 189.943 136.108 194 141C196.709 142.354 199.009 142.065 202 142C202.42 135.909 202.057 132.892 198 128C195.291 126.646 192.991 126.935 190 127Z" fill="#EBDCDC"/>
<path d="M154 122C156.616 124.616 156.777 126.353 157 130C155.688 131.875 155.688 131.875 154 133C153.34 133 152.68 133 152 133C151.34 130.69 150.68 128.38 150 126C151.32 124.68 152.64 123.36 154 122Z" fill="#524F4F"/>
<path d="M88 165C90.6163 167.616 90.7767 169.353 91 173C89.6875 174.875 89.6875 174.875 88 176C87.34 176 86.68 176 86 176C85.34 173.69 84.68 171.38 84 169C85.32 167.68 86.64 166.36 88 165Z" fill="#535050"/>
<path d="M111 138C111.66 138.33 112.32 138.66 113 139C113.812 142.375 113.812 142.375 114 146C112.688 147.938 112.688 147.938 111 149C110.34 149 109.68 149 109 149C108.031 143.627 108.031 143.627 108 141C109.438 139 109.438 139 111 138Z" fill="#514F4F"/>
<path d="M204 121C205.938 121.75 205.938 121.75 208 123C208.75 125.125 208.75 125.125 209 127C206.525 128.485 206.525 128.485 204 130C202.68 128.35 201.36 126.7 200 125C201.32 123.68 202.64 122.36 204 121Z" fill="#535050"/>
<path d="M116 146C118.139 148.139 118.427 149.133 119 152C115.912 153.765 114.767 154 111 154C111.542 150.204 113.201 148.528 116 146Z" fill="#14140E"/>
<path d="M76 161C78.5615 164.842 79.3608 167.769 78.6133 172.391C78.1215 174.609 77.5899 176.806 77 179C76.67 179 76.34 179 76 179C76 173.06 76 167.12 76 161Z" fill="#372927"/>
<path d="M91 175C91.66 175 92.32 175 93 175C92.75 176.875 92.75 176.875 92 179C89.9375 180.25 89.9375 180.25 88 181C88.5734 178.133 88.8615 177.139 91 175Z" fill="#4E4C4C"/>
<path d="M114 148C114.66 148 115.32 148 116 148C115.75 149.875 115.75 149.875 115 152C112.938 153.25 112.938 153.25 111 154C111.573 151.133 111.861 150.139 114 148Z" fill="#504D4D"/>
<path d="M157 132C157.66 132 158.32 132 159 132C158.75 133.875 158.75 133.875 158 136C155.938 137.25 155.938 137.25 154 138C154.573 135.133 154.861 134.139 157 132Z" fill="#4F4D4C"/>
<path d="M209 129C209.33 129.99 209.66 130.98 210 132C208.68 132.99 207.36 133.98 206 135C206.573 132.133 206.861 131.139 209 129Z" fill="#585656"/>
<path d="M94 142C94.66 142.33 95.32 142.66 96 143C95.67 143.99 95.34 144.98 95 146C94.34 145.34 93.68 144.68 93 144C93.33 143.34 93.66 142.68 94 142Z" fill="#555446"/>
</g>
<defs>
<clipPath id="clip0_1_2">
<rect width="300" height="300" fill="white"/>
</clipPath>
</defs>
</svg>