<?xml version="1.0" encoding="UTF-8"?>
<svg version="1.1" xmlns="http://www.w3.org/2000/svg" width="300" height="300">
<path d="M0 0 C99 0 198 0 300 0 C300 99 300 198 300 300 C201 300 102 300 0 300 C0 201 0 102 0 0 Z " fill="#FCFBFB" transform="translate(0,0)"/>
<path d="M0 0 C99 0 198 0 300 0 C300 99 300 198 300 300 C201 300 102 300 0 300 C0 201 0 102 0 0 Z M69 19 C69.33 19.99 69.66 20.98 70 22 C69.01 22 68.02 22 67 22 C67 22.66 67 23.32 67 24 C66.34 24 65.68 24 65 24 C65 107.49 65 190.98 65 277 C65.33 276.34 65.66 275.68 66 275 C66.66 275 67.32 275 68 275 C67.67 276.65 67.34 278.3 67 280 C70.43045788 283.17447429 72.8808272 283.3780578 77.48362732 283.38768005 C78.13280201 283.39306559 78.78197671 283.39845113 79.45082337 283.40399987 C81.62422855 283.41829762 83.79702623 283.41117166 85.97045898 283.40405273 C87.52942393 283.40975539 89.0883847 283.41671925 90.64733887 283.42485046 C94.88083388 283.4428089 99.11412193 283.44160845 103.34764361 283.43590808 C106.88152502 283.43282002 110.41536645 283.43890442 113.94924217 283.44494683 C122.28593804 283.45899932 130.62253145 283.45742482 138.95922852 283.44604492 C147.56054988 283.43456327 156.16155946 283.44863842 164.76283973 283.4754414 C172.14724851 283.49759108 179.53155936 283.50423742 186.915999 283.49836498 C191.3265616 283.4949924 195.73692434 283.49743037 200.14745903 283.51461601 C204.29506807 283.53007146 208.44221492 283.52614548 212.5898056 283.50731087 C214.11157454 283.50362103 215.63337761 283.50674499 217.15511513 283.51719666 C219.23374028 283.53038263 221.31082991 283.51888326 223.38938904 283.50120544 C224.55210547 283.50099616 225.71482191 283.50078688 226.91277218 283.50057125 C230.65356575 282.89402913 232.3118802 281.61850459 235 279 C236.15521548 276.68956905 236.12432413 275.38879439 236.12304783 272.81832695 C236.12503888 271.93652917 236.12702993 271.05473139 236.12908131 270.14621246 C236.12471205 268.68417253 236.12471205 268.68417253 236.12025452 267.19259644 C236.12110894 266.16183239 236.12196337 265.13106835 236.12284368 264.06906903 C236.12449931 260.59274094 236.11897575 257.11646041 236.11352539 253.64013672 C236.11324351 251.15711468 236.11340127 248.67409255 236.1139679 246.19107056 C236.11419609 240.83376318 236.11134779 235.4764708 236.10573006 230.11916733 C236.09761297 222.37334798 236.09499962 214.62753452 236.09374207 206.88171138 C236.09155188 194.31550608 236.08489268 181.74930725 236.07543945 169.18310547 C236.06626449 156.97412142 236.05918406 144.76513914 236.05493164 132.55615234 C236.05466892 131.80395491 236.05440619 131.05175747 236.05413551 130.27676617 C236.0528305 126.50332149 236.05156678 122.7298768 236.05032361 118.9564321 C236.03995202 87.63761669 236.02226041 56.31880933 236 25 C235.34 25 234.68 25 234 25 C234.33 23.68 234.66 22.36 235 21 C234.360625 20.896875 233.72125 20.79375 233.0625 20.6875 C232.381875 20.460625 231.70125 20.23375 231 20 C230.67 19.01 230.34 18.02 230 17 C209.30352684 16.95333203 188.60706231 16.91803673 167.91054726 16.89637566 C158.30134958 16.88605186 148.69218454 16.87197053 139.08300781 16.84912109 C130.71014395 16.8292209 122.33730372 16.81629159 113.96441686 16.81182301 C109.52878544 16.8092099 105.09322165 16.8030452 100.65761185 16.78853989 C96.48639755 16.77500915 92.31527903 16.77076817 88.14404488 16.77378464 C86.60972512 16.77323244 85.0754023 16.76922821 83.54110146 16.76158905 C81.4528696 16.75169812 79.36500352 16.75400937 77.27676392 16.75949097 C75.52074828 16.75672559 75.52074828 16.75672559 73.72925758 16.75390434 C70.85345128 16.71938351 70.85345128 16.71938351 69 19 Z " fill="#FCFCFD" transform="translate(0,0)"/>
<path d="M0 0 C1.04584763 -0.0071553 2.09169525 -0.01431061 3.16923523 -0.02168274 C4.32146072 -0.02437164 5.47368622 -0.02706055 6.66082764 -0.02983093 C7.87067825 -0.03640213 9.08052887 -0.04297333 10.32704163 -0.04974365 C14.34553267 -0.06951389 18.36398376 -0.08114775 22.38250732 -0.09111023 C23.7660906 -0.09515776 25.14967367 -0.09927468 26.53325653 -0.10346031 C33.03446277 -0.12251478 39.53565765 -0.13674434 46.03688645 -0.14507228 C53.53908683 -0.1548412 61.04099187 -0.18115025 68.5430882 -0.22157317 C74.34275221 -0.25174931 80.14233165 -0.26654263 85.94207263 -0.26985329 C89.4053957 -0.27220245 92.86840337 -0.28114437 96.33164215 -0.30631447 C100.19797679 -0.33395952 104.06392417 -0.32975943 107.93035889 -0.32279968 C109.07448746 -0.33560974 110.21861603 -0.3484198 111.39741516 -0.36161804 C118.76193666 -0.31324363 122.41827051 0.53696975 127.69891357 5.77998352 C131.61091867 10.77792983 132.19809614 13.49712583 132.16790771 19.7179718 C132.16805374 20.4985495 132.16819977 21.2791272 132.16835022 22.08335876 C132.16765219 24.66976171 132.15986489 27.25609311 132.15203857 29.84248352 C132.15017401 31.63324443 132.14875029 33.42400585 132.14775085 35.21476746 C132.14392873 39.93301293 132.13410103 44.65122773 132.12304688 49.36946106 C132.11282621 54.18207891 132.10825183 58.9947017 132.10321045 63.80732727 C132.09247851 73.25395535 132.07540573 82.70056064 132.05438232 92.14717102 C129.95144074 89.54916194 127.93665235 86.97425512 126.05438232 84.20967102 C121.63097778 78.98571166 114.79481504 75.80990541 108.14422607 74.63154602 C97.94449915 74.22986901 90.6901222 78.88810542 83.05438232 85.14717102 C82.14752686 85.88773743 82.14752686 85.88773743 81.22235107 86.64326477 C79.82344461 87.7997378 78.43733245 88.97166342 77.05438232 90.14717102 C76.39438232 88.82717102 75.73438232 87.50717102 75.05438232 86.14717102 C68.0450139 86.88499928 61.58447849 89.27489986 55.92938232 93.45967102 C53.54480406 96.87756654 53.65439642 99.06731481 54.05438232 103.14717102 C51.32225098 102.13237938 49.06620903 101.15557421 46.67938232 99.45967102 C42.56278197 97.40137084 38.93002095 98.55468942 34.7086792 99.88813782 C32.11294469 100.81746548 29.55288446 101.81369244 26.99188232 102.83467102 C26.11983154 103.16144836 25.24778076 103.48822571 24.3493042 103.8249054 C18.70596497 106.05917218 14.7241841 108.22728499 11.05438232 113.14717102 C11.3875632 117.32992225 12.59682538 120.95447862 14.12078857 124.84248352 C14.52362061 125.88791321 14.92645264 126.9333429 15.3414917 128.01045227 C16.19491991 130.19303283 17.04909213 132.37532261 17.9039917 134.55732727 C18.50630615 136.12160461 18.50630615 136.12160461 19.12078857 137.71748352 C19.49147461 138.66381653 19.86216064 139.61014954 20.24407959 140.5851593 C21.05438232 143.14717102 21.05438232 143.14717102 21.05438232 147.14717102 C18.80438232 146.73310852 18.80438232 146.73310852 16.05438232 145.14717102 C14.3158559 142.18006501 13.21535066 139.00111421 12.05438232 135.77217102 C11.36752872 133.95682215 10.68002985 132.14171729 9.99188232 130.32685852 C9.66317139 129.44223938 9.33446045 128.55762024 8.99578857 127.64619446 C7.75832547 124.36126906 6.41932478 121.131154 5.05438232 117.89717102 C4.66250732 116.96388977 4.27063232 116.03060852 3.86688232 115.06904602 C3.59875732 114.43482727 3.33063232 113.80060852 3.05438232 113.14717102 C-0.88871432 113.71047054 -4.3785413 114.529137 -8.07061768 116.02217102 C-9.31198486 116.51330383 -9.31198486 116.51330383 -10.57843018 117.01435852 C-12.96993993 118.15881038 -14.85326147 119.53253178 -16.94561768 121.14717102 C-17.03913928 107.03902626 -17.10936899 92.93092969 -17.15286636 78.82253838 C-17.17374273 72.27146022 -17.20206203 65.72059028 -17.24737549 59.16963196 C-17.29083034 52.84782489 -17.31475441 46.52621812 -17.32512665 40.20427322 C-17.33251857 37.79211906 -17.34695315 35.37997587 -17.3685379 32.96790695 C-17.39756605 29.5897577 -17.40157378 26.21243661 -17.39971924 22.83418274 C-17.41410034 21.8365239 -17.42848145 20.83886505 -17.44329834 19.81097412 C-17.40234867 12.91939219 -16.22887177 9.45398914 -11.31280518 4.50263977 C-7.18176662 1.26918289 -5.19948862 0.02435977 0 0 Z " fill="#231816" transform="translate(92.94561767578125,27.852828979492188)"/>
<path d="M0 0 C0.33 0 0.66 0 1 0 C1.07013337 14.76009301 1.12300934 29.52016391 1.15543652 44.28038979 C1.17089435 51.13408611 1.19196301 57.9876788 1.22631836 64.84130859 C1.25945444 71.45486595 1.27685139 78.0683439 1.28463173 84.68198776 C1.29017671 87.20577057 1.30100457 89.72954746 1.31719017 92.25328445 C1.33895263 95.78698738 1.34196734 99.3202448 1.34057617 102.85400391 C1.351362 103.89841644 1.36214783 104.94282898 1.3732605 106.01889038 C1.34618692 112.37017291 0.76678132 117.00055752 -3.71875 121.86328125 C-4.3065625 122.34152344 -4.894375 122.81976563 -5.5 123.3125 C-6.0878125 123.80363281 -6.675625 124.29476562 -7.28125 124.80078125 C-10.46011246 127.01876028 -13.27793599 127.12944103 -17.02790833 127.14717102 C-18.58612053 127.15790398 -18.58612053 127.15790398 -20.17581177 127.16885376 C-21.31509125 127.17154266 -22.45437073 127.17423157 -23.62817383 127.17700195 C-24.8284169 127.18357315 -26.02865997 127.19014435 -27.26527405 127.19691467 C-31.24586231 127.2166611 -35.22641028 127.22831431 -39.20703125 127.23828125 C-40.57854418 127.24232961 -41.95005692 127.24644656 -43.32156944 127.25063133 C-49.76510714 127.26967719 -56.20863342 127.28390985 -62.65219384 127.2922433 C-70.08533468 127.30201588 -77.51817774 127.32833813 -84.95121366 127.36874419 C-90.69994285 127.39892 -96.44858675 127.41371352 -102.1973936 127.41702431 C-105.62940388 127.41937303 -109.06109582 127.42830965 -112.49302101 127.45348549 C-116.32347089 127.4777713 -120.15313966 127.47693074 -123.98364258 127.4699707 C-125.11684937 127.48278076 -126.25005615 127.49559082 -127.41760254 127.50878906 C-134.74747111 127.460189 -138.38773288 126.5865265 -143.64453125 121.3671875 C-148.12612853 115.64153479 -148.12612853 115.64153479 -148.12025452 111.00106812 C-148.12162918 110.16531754 -148.12300385 109.32956696 -148.12442017 108.4684906 C-148.12082489 107.54995804 -148.11722961 106.63142548 -148.11352539 105.68505859 C-148.11367142 104.71916306 -148.11381744 103.75326752 -148.1139679 102.75810242 C-148.11326937 99.55485819 -148.10547978 96.35167161 -148.09765625 93.1484375 C-148.09579186 90.93169181 -148.09436805 88.71494571 -148.09336853 86.49819946 C-148.08954504 80.65546537 -148.07971617 74.81275603 -148.06866455 68.97003174 C-148.05844682 63.01127456 -148.05387013 57.0525134 -148.04882812 51.09375 C-148.03809377 39.39582244 -148.02101935 27.69791328 -148 16 C-146.08773819 18.86839271 -144.98568761 21.38065139 -143.7578125 24.5859375 C-143.33113281 25.68164062 -142.90445313 26.77734375 -142.46484375 27.90625 C-141.57525329 30.20932967 -140.68979941 32.51401163 -139.80859375 34.8203125 C-139.16470703 36.46773437 -139.16470703 36.46773437 -138.5078125 38.1484375 C-138.12254395 39.15052246 -137.73727539 40.15260742 -137.34033203 41.18505859 C-133.96848703 48.26654728 -129.16147267 51.34437792 -122 54 C-114.946383 55.02391215 -108.37254583 53.10457361 -102 50 C-99.11740753 47.79566458 -96.54009049 45.47572053 -93.9609375 42.92578125 C-92 41 -92 41 -90 40 C-89.505 41.98 -89.505 41.98 -89 44 C-76.38516669 41.00185611 -76.38516669 41.00185611 -67 33 C-66.74379255 29.98547404 -67.22685399 27.9894979 -68 25 C-64.92338929 26.0858626 -62.74688665 27.19258625 -60.125 29.1875 C-56.11395576 31.51390566 -54.42988903 31.16576027 -50 30 C-45.96987992 28.61030342 -43.57758032 27.71348158 -40.875 24.375 C-36.85032609 21.05026938 -33.44272792 21.50925947 -28.3515625 21.28515625 C-19.53937521 20.53540139 -12.95872556 16.34151307 -7 10 C-4.3802359 6.84372648 -1.8393883 3.67877661 0 0 Z " fill="#241816" transform="translate(224,145)"/>
<path d="M0 0 C8.0324255 4.90201556 12.6295463 11.63863891 15.5625 20.4375 C16.57911744 30.4536817 14.21616498 38.06420544 8.375 46.1875 C3.53006833 52.06171973 -2.88156691 56.86334727 -10.4375 58.4375 C-14.95353496 58.73064613 -19.06469387 58.67415332 -23.4375 57.4375 C-23.76621094 57.89640625 -24.09492188 58.3553125 -24.43359375 58.828125 C-28.24462258 63.74424891 -32.30598028 66.9213424 -38.4375 68.4375 C-41.34070287 67.92653925 -43.43918062 66.98269144 -45.890625 65.37109375 C-46.509375 64.96826172 -47.128125 64.56542969 -47.765625 64.15039062 C-48.39984375 63.72951172 -49.0340625 63.30863281 -49.6875 62.875 C-50.3371875 62.45025391 -50.986875 62.02550781 -51.65625 61.58789062 C-53.25328918 60.5427694 -54.8458442 59.49080163 -56.4375 58.4375 C-55.4475 62.3975 -54.4575 66.3575 -53.4375 70.4375 C-59.14630809 76.14630809 -64.71607339 78.28209356 -72.4375 80.4375 C-73.0975 78.4575 -73.7575 76.4775 -74.4375 74.4375 C-75.0975 74.4375 -75.7575 74.4375 -76.4375 74.4375 C-76.685 75.015 -76.9325 75.5925 -77.1875 76.1875 C-80.83337888 82.75008198 -87.79234736 87.37975555 -94.75390625 89.8125 C-100.98854525 91.26452655 -106.94344361 91.59215574 -112.8125 88.875 C-121.01737792 81.25618479 -124.14235317 73.32440015 -127.8125 63 C-128.36189551 61.48972956 -128.91266527 59.97995829 -129.46484375 58.47070312 C-130.80499144 54.79853788 -132.12630797 51.12009829 -133.4375 47.4375 C-129.82263579 42.72105519 -126.87630962 39.61011071 -121.1875 37.4375 C-119.63289063 36.81875 -119.63289063 36.81875 -118.046875 36.1875 C-115.4375 35.4375 -115.4375 35.4375 -113.4375 36.4375 C-112.53033475 38.50641784 -111.71443435 40.61559489 -110.94140625 42.73828125 C-110.70719467 43.37106491 -110.47298309 44.00384857 -110.23167419 44.6558075 C-109.4809875 46.68478033 -108.73949679 48.71692421 -108 50.75 C-107.02977887 53.41564845 -106.05068658 56.07779699 -105.06640625 58.73828125 C-104.63400635 59.92591064 -104.20160645 61.11354004 -103.75610352 62.3371582 C-102.56039916 65.14853566 -101.52590627 67.22220154 -99.4375 69.4375 C-96.33552603 70.24696422 -96.33552603 70.24696422 -93.4375 70.4375 C-94.82325933 61.89334385 -97.60375557 54.23112173 -100.77929688 46.20898438 C-101.13443359 45.27763672 -101.48957031 44.34628906 -101.85546875 43.38671875 C-102.18313232 42.55487061 -102.5107959 41.72302246 -102.84838867 40.8659668 C-103.54839456 37.98036439 -103.34207722 36.25355941 -102.4375 33.4375 C-98.06174016 28.93886391 -93.31366044 26.81055035 -87.5 24.625 C-86.72720703 24.31369141 -85.95441406 24.00238281 -85.15820312 23.68164062 C-80.46166616 21.87528025 -76.531877 20.75148905 -71.4375 21.4375 C-68.12890625 23.1875 -68.12890625 23.1875 -65 25.4375 C-63.94941406 26.18 -62.89882812 26.9225 -61.81640625 27.6875 C-61.03136719 28.265 -60.24632812 28.8425 -59.4375 29.4375 C-59.4375 25.82720831 -60.39842582 22.87943324 -61.4375 19.4375 C-56.43652914 14.58283414 -52.23291566 11.24961084 -45.4375 9.4375 C-43.328125 9.5625 -43.328125 9.5625 -41.4375 10.4375 C-40.1875 13 -40.1875 13 -39.4375 15.4375 C-38.86902344 14.77363281 -38.30054688 14.10976562 -37.71484375 13.42578125 C-27.96843367 2.28005353 -15.54155597 -7.10035792 0 0 Z " fill="#0E0D0C" transform="translate(209.4375,106.5625)"/>
<path d="M0 0 C0.69351563 0.42410156 1.38703125 0.84820312 2.1015625 1.28515625 C10.50568049 6.93511572 15.03159484 15.50369434 18 25 C18.48007368 28.4811377 18.47211009 31.87414412 18.390625 35.3828125 C18.38496521 36.32309296 18.37930542 37.26337341 18.37347412 38.23214722 C18.3513165 41.19697846 18.30116127 44.16054218 18.25 47.125 C18.22990827 49.15102405 18.21166222 51.17706729 18.1953125 53.203125 C18.15151969 58.13589533 18.08263882 63.06773377 18 68 C15.89705842 65.40199092 13.88227003 62.8270841 12 60.0625 C7.57659545 54.83854064 0.74043272 51.66273439 -5.91015625 50.484375 C-16.10988317 50.08269799 -23.36426013 54.7409344 -31 61 C-31.90685547 61.74056641 -31.90685547 61.74056641 -32.83203125 62.49609375 C-34.23093772 63.65256678 -35.61704988 64.8244924 -37 66 C-37.66 64.68 -38.32 63.36 -39 62 C-46.00936842 62.73782826 -52.46990384 65.12772884 -58.125 69.3125 C-60.50957827 72.73039552 -60.3999859 74.92014379 -60 79 C-62.73213134 77.98520836 -64.98817329 77.00840319 -67.375 75.3125 C-71.49160036 73.25419982 -75.12436137 74.4075184 -79.34570312 75.7409668 C-81.94143764 76.67029446 -84.50149786 77.66652142 -87.0625 78.6875 C-87.93455078 79.01427734 -88.80660156 79.34105469 -89.70507812 79.67773438 C-95.34841735 81.91200115 -99.33019822 84.08011397 -103 89 C-102.66681913 93.18275123 -101.45755694 96.8073076 -99.93359375 100.6953125 C-99.53076172 101.74074219 -99.12792969 102.78617187 -98.71289062 103.86328125 C-97.85946242 106.04586181 -97.00529019 108.22815159 -96.15039062 110.41015625 C-95.74884766 111.45300781 -95.34730469 112.49585938 -94.93359375 113.5703125 C-94.56290771 114.51664551 -94.19222168 115.46297852 -93.81030273 116.43798828 C-93 119 -93 119 -93 123 C-95.25 122.5859375 -95.25 122.5859375 -98 121 C-99.73852642 118.03289399 -100.83903166 114.85394319 -102 111.625 C-102.6868536 109.80965113 -103.37435247 107.99454627 -104.0625 106.1796875 C-104.39121094 105.29506836 -104.71992187 104.41044922 -105.05859375 103.49902344 C-106.29605685 100.21409804 -107.63505754 96.98398298 -109 93.75 C-109.391875 92.81671875 -109.78375 91.8834375 -110.1875 90.921875 C-110.455625 90.28765625 -110.72375 89.6534375 -111 89 C-114.465 89.495 -114.465 89.495 -118 90 C-116.10764049 83.61222909 -113.61504961 77.96459157 -110.3125 72.1875 C-109.6472229 71.0113916 -109.6472229 71.0113916 -108.96850586 69.81152344 C-97.09192118 49.03230039 -82.09657592 29.59800655 -63 15 C-62.34902344 14.47148438 -61.69804687 13.94296875 -61.02734375 13.3984375 C-45.3427941 0.94403926 -19.18179643 -12.56603398 0 0 Z " fill="#E50113" transform="translate(207,52)"/>
<path d="M0 0 C1.91226181 2.86839271 3.01431239 5.38065139 4.2421875 8.5859375 C4.66886719 9.68164062 5.09554687 10.77734375 5.53515625 11.90625 C6.42474671 14.20932967 7.31020059 16.51401163 8.19140625 18.8203125 C8.83529297 20.46773437 8.83529297 20.46773437 9.4921875 22.1484375 C10.07009033 23.65156494 10.07009033 23.65156494 10.65966797 25.18505859 C14.03151297 32.26654728 18.83852733 35.34437792 26 38 C33.053617 39.02391215 39.62745417 37.10457361 46 34 C48.88259247 31.79566458 51.45990951 29.47572053 54.0390625 26.92578125 C56 25 56 25 58 24 C58.495 25.98 58.495 25.98 59 28 C71.61483331 25.00185611 71.61483331 25.00185611 81 17 C81.25620745 13.98547404 80.77314601 11.9894979 80 9 C83.07661071 10.0858626 85.25311335 11.19258625 87.875 13.1875 C91.88604424 15.51390566 93.57011097 15.16576027 98 14 C102.03012008 12.61030342 104.42241968 11.71348158 107.125 8.375 C111.1325833 5.06438771 114.47779373 5.49760331 119.55078125 5.3125 C124.74096689 4.84226801 129.24468966 3.04888121 134 1 C133.43670163 6.15161962 130.95146186 10.14014942 128.4375 14.5625 C127.76195068 15.76132813 127.76195068 15.76132813 127.07275391 16.984375 C121.19392481 27.30817243 114.62568871 36.87829944 107 46 C106.56171875 46.53383301 106.1234375 47.06766602 105.671875 47.61767578 C89.70699996 67.04197258 68.08567134 87.58164867 42 91 C33.19504295 91.7230682 25.61107229 91.80935867 18 87 C17.30390625 86.57589844 16.6078125 86.15179688 15.890625 85.71484375 C7.22276285 79.86566609 2.57656934 70.96153998 0 61 C-0.5013766 56.18234622 -0.46882963 51.42135297 -0.390625 46.58203125 C-0.38314395 45.23012641 -0.37745986 43.87821056 -0.37347412 42.52629089 C-0.3583638 39.00634638 -0.31921364 35.48708568 -0.2746582 31.96740723 C-0.23338534 28.36052698 -0.21539555 24.75353382 -0.1953125 21.14648438 C-0.15270068 14.0973803 -0.08463261 7.04873532 0 0 Z " fill="#E50112" transform="translate(76,161)"/>
<path d="M0 0 C5.65862162 3.87218075 10.97984543 9.73706469 12.36328125 16.6171875 C13.11812452 24.51473524 13.52440366 32.17299276 8.36328125 38.6171875 C2.41047355 44.98795829 -2.65842252 47.59393505 -11.38671875 48.1171875 C-18.05397541 47.97656298 -22.62502918 45.98681008 -27.63671875 41.6171875 C-34.08874403 33.9871991 -36.18434993 27.06044662 -36.0078125 17.1328125 C-35.36433148 11.03667649 -33.14738934 7.00412894 -28.734375 2.80859375 C-19.6513468 -4.46131558 -10.21961651 -5.62635186 0 0 Z " fill="#F6E242" transform="translate(210.63671875,109.3828125)"/>
<path d="M0 0 C1.25690004 2.44148948 2.21337875 4.68537874 3.12890625 7.25390625 C3.40468002 7.98818344 3.6804538 8.72246063 3.96458435 9.47898865 C4.84550647 11.83491123 5.70419577 14.19825541 6.5625 16.5625 C7.14373021 18.12879482 7.72639672 19.69455745 8.31054688 21.25976562 C9.64004371 24.83040013 10.95655702 28.40541036 12.25466919 31.98757935 C12.77065359 33.38075624 13.30487551 34.76726332 13.85348511 36.1479187 C15.25219125 39.69354994 16 42.13639952 16 46 C12.46105508 47.62250631 10.82554827 48.2193189 7 48 C1.39912529 45.30610311 -3.52255233 41.73746869 -8.5625 38.125 C-9.96504035 37.14981261 -11.36932393 36.1771273 -12.77539062 35.20703125 C-16.20444128 32.83316253 -19.60789317 30.42633168 -23 28 C-22.72736328 28.73637695 -22.45472656 29.47275391 -22.17382812 30.23144531 C-20.94254278 33.56854432 -19.72117474 36.90918861 -18.5 40.25 C-18.07074219 41.40886719 -17.64148438 42.56773437 -17.19921875 43.76171875 C-16.79316406 44.87675781 -16.38710937 45.99179688 -15.96875 47.140625 C-15.59169922 48.16704102 -15.21464844 49.19345703 -14.82617188 50.25097656 C-14 53 -14 53 -14 57 C-16.97 57.99 -19.94 58.98 -23 60 C-26.61433268 52.14353492 -29.79033692 44.13154651 -32.91088867 36.06933594 C-33.51556011 34.51385837 -34.12565666 32.96047961 -34.7409668 31.40917969 C-35.63782715 29.14718045 -36.51789335 26.87927556 -37.39453125 24.609375 C-37.67150345 23.91970642 -37.94847565 23.23003784 -38.23384094 22.51947021 C-39.69715425 18.6678464 -40.49699688 15.93194805 -39 12 C-36.3974166 10.40953236 -34.75389666 9.92664746 -31.71411133 10.22241211 C-28.27417845 11.20794654 -25.80349462 12.83511442 -22.82421875 14.81640625 C-22.25419632 15.19232407 -21.68417389 15.56824188 -21.09687805 15.95555115 C-19.28870772 17.15045424 -17.48810818 18.3562393 -15.6875 19.5625 C-14.45816672 20.37768413 -13.22835372 21.19214533 -11.99804688 22.00585938 C-8.99309904 23.99556728 -5.99483749 25.99509715 -3 28 C-3 24.83394848 -3.60008925 23.10453291 -4.75 20.18359375 C-5.1109375 19.25482422 -5.471875 18.32605469 -5.84375 17.36914062 C-6.2253125 16.40169922 -6.606875 15.43425781 -7 14.4375 C-7.75298299 12.52070039 -8.5031298 10.60278343 -9.25 8.68359375 C-9.58515625 7.83337646 -9.9203125 6.98315918 -10.265625 6.10717773 C-11 4 -11 4 -11 2 C-3.43640387 -1.63634429 -3.43640387 -1.63634429 0 0 Z " fill="#F9DF14" transform="translate(167,119)"/>
<path d="M0 0 C1.59571237 3.88086816 3.16040259 7.77255113 4.69970703 11.67602539 C5.22525065 12.9969387 5.75855367 14.31479633 6.30029297 15.62915039 C9.89683831 24.37362659 12.27842456 32.38699202 11 42 C8.06062748 48.33095619 3.09127957 52.43077224 -3.375 54.8125 C-8.45406358 56.28432245 -13.08824971 57.29351978 -18.13671875 55.05078125 C-25.86236256 50.52392527 -28.87893214 44.56136693 -32 36.4375 C-32.34740234 35.5515918 -32.69480469 34.66568359 -33.05273438 33.75292969 C-35.58529351 27.23622264 -37.93579255 20.6815136 -40 14 C-33.69703463 10.96972819 -33.69703463 10.96972819 -31.04370117 11.08496094 C-29 12 -29 12 -27.61547852 14.62036133 C-27.20740967 15.7627124 -26.79934082 16.90506348 -26.37890625 18.08203125 C-26.03894875 18.99791267 -26.03894875 18.99791267 -25.69212341 19.93229675 C-24.9670355 21.8871859 -24.26253346 23.84851055 -23.5625 25.8125 C-22.64388639 28.38837015 -21.70514967 30.95555782 -20.75390625 33.51953125 C-20.34470947 34.66526611 -19.9355127 35.81100098 -19.51391602 36.99145508 C-17.80986232 40.37785303 -16.14742988 41.93348354 -13 44 C-9.10089714 44.58087193 -5.83121204 43.49872722 -2.5 41.5 C-0.25484184 37.75806973 -0.46337856 34.20624481 -1 30 C-2.24480389 25.96158378 -3.88056926 22.12368893 -5.5625 18.25 C-6.42982236 16.23944713 -7.28579016 14.22394814 -8.12890625 12.203125 C-8.51119385 11.32301758 -8.89348145 10.44291016 -9.28735352 9.53613281 C-10.11693465 6.58385846 -9.97577053 4.89195987 -9 2 C-5.72271751 0.13992075 -3.8340246 0 0 0 Z " fill="#F9DF14" transform="translate(124,134)"/>
<path d="M0 0 C4.5966319 2.89417564 7.25198049 5.85305366 9 11 C9.67565572 16.11329575 9.57851222 19.84297555 7.25 24.5 C4.65750909 27.38054546 2.69171812 28.67478986 -1.11328125 29.40625 C-6.66323423 29.64283769 -9.49816039 28.54423624 -13.58984375 24.80078125 C-17.21743743 20.16831397 -17.48276259 15.35746488 -17.390625 9.66796875 C-16.77088486 5.43514356 -15.17388069 3.80482479 -12 1 C-7.91993333 -0.36002222 -4.26217608 -0.64114786 0 0 Z " fill="#10100E" transform="translate(203,117)"/>
<path d="M0 0 C1.25690004 2.44148948 2.21337875 4.68537874 3.12890625 7.25390625 C3.40468002 7.98818344 3.6804538 8.72246063 3.96458435 9.47898865 C4.84550647 11.83491123 5.70419577 14.19825541 6.5625 16.5625 C7.14373021 18.12879482 7.72639672 19.69455745 8.31054688 21.25976562 C9.64004371 24.83040013 10.95655702 28.40541036 12.25466919 31.98757935 C12.77065359 33.38075624 13.30487551 34.76726332 13.85348511 36.1479187 C15.25219125 39.69354994 16 42.13639952 16 46 C12.46105508 47.62250631 10.82554827 48.2193189 7 48 C1.39912529 45.30610311 -3.52255233 41.73746869 -8.5625 38.125 C-9.96504035 37.14981261 -11.36932393 36.1771273 -12.77539062 35.20703125 C-16.20444128 32.83316253 -19.60789317 30.42633168 -23 28 C-22.72736328 28.73637695 -22.45472656 29.47275391 -22.17382812 30.23144531 C-20.94254278 33.56854432 -19.72117474 36.90918861 -18.5 40.25 C-18.07074219 41.40886719 -17.64148438 42.56773437 -17.19921875 43.76171875 C-16.79316406 44.87675781 -16.38710937 45.99179688 -15.96875 47.140625 C-15.59169922 48.16704102 -15.21464844 49.19345703 -14.82617188 50.25097656 C-14 53 -14 53 -14 57 C-16.97 57.99 -19.94 58.98 -23 60 C-26.61433268 52.14353492 -29.79033692 44.13154651 -32.91088867 36.06933594 C-33.51556011 34.51385837 -34.12565666 32.96047961 -34.7409668 31.40917969 C-35.63782715 29.14718045 -36.51789335 26.87927556 -37.39453125 24.609375 C-37.67150345 23.91970642 -37.94847565 23.23003784 -38.23384094 22.51947021 C-39.69715425 18.6678464 -40.49699688 15.93194805 -39 12 C-36.3974166 10.40953236 -34.75389666 9.92664746 -31.71411133 10.22241211 C-28.27417845 11.20794654 -25.80349462 12.83511442 -22.82421875 14.81640625 C-22.25419632 15.19232407 -21.68417389 15.56824188 -21.09687805 15.95555115 C-19.28870772 17.15045424 -17.48810818 18.3562393 -15.6875 19.5625 C-14.45816672 20.37768413 -13.22835372 21.19214533 -11.99804688 22.00585938 C-8.99309904 23.99556728 -5.99483749 25.99509715 -3 28 C-3 24.83394848 -3.60008925 23.10453291 -4.75 20.18359375 C-5.1109375 19.25482422 -5.471875 18.32605469 -5.84375 17.36914062 C-6.2253125 16.40169922 -6.606875 15.43425781 -7 14.4375 C-7.75298299 12.52070039 -8.5031298 10.60278343 -9.25 8.68359375 C-9.58515625 7.83337646 -9.9203125 6.98315918 -10.265625 6.10717773 C-11 4 -11 4 -11 2 C-3.43640387 -1.63634429 -3.43640387 -1.63634429 0 0 Z M-9 3 C-7.0173911 10.06512428 -4.592956 16.83726835 -1.8125 23.625 C-1.44447266 24.53378906 -1.07644531 25.44257813 -0.69726562 26.37890625 C0.19783479 28.58759559 1.0969535 30.79455048 2 33 C-1.64634417 30.6257836 -5.29198026 28.25048205 -8.9375 25.875 C-9.95908203 25.20984375 -10.98066406 24.5446875 -12.03320312 23.859375 C-13.04189453 23.20195312 -14.05058594 22.54453125 -15.08984375 21.8671875 C-16.08935059 21.2184668 -17.08885742 20.56974609 -18.11865234 19.90136719 C-19.96455859 18.68327552 -21.79489864 17.44105196 -23.60400391 16.16894531 C-24.38565918 15.62077148 -25.16731445 15.07259766 -25.97265625 14.5078125 C-26.6469165 14.02199707 -27.32117676 13.53618164 -28.01586914 13.03564453 C-31.60395842 11.16279173 -34.20197793 11.91485084 -38 13 C-39.23806126 14.92781711 -39.23806126 14.92781711 -38.51283264 16.87295532 C-38.22637375 17.63240448 -37.93991486 18.39185364 -37.64477539 19.17431641 C-37.16416405 20.46542831 -37.16416405 20.46542831 -36.67384338 21.78262329 C-36.31870163 22.71287323 -35.96355988 23.64312317 -35.59765625 24.6015625 C-35.06282875 26.02896255 -35.06282875 26.02896255 -34.51719666 27.48519897 C-33.37276773 30.53453893 -32.21776762 33.57975194 -31.0625 36.625 C-30.28641169 38.68723757 -29.51101193 40.74973441 -28.73632812 42.8125 C-26.83220869 47.87803941 -24.91938692 52.94022731 -23 58 C-20.23723823 57.47731534 -17.6739124 56.89130413 -15 56 C-17.03849004 48.80613443 -19.48156368 41.84290835 -22.1875 34.875 C-22.73954102 33.44027344 -22.73954102 33.44027344 -23.30273438 31.9765625 C-24.19855445 29.64975711 -25.09767773 27.32428979 -26 25 C-20.53246235 28.4270145 -15.13880502 31.88288723 -9.875 35.6171875 C-8.96129639 36.25446777 -8.04759277 36.89174805 -7.10620117 37.54833984 C-5.26325419 38.83580975 -3.43225153 40.14057173 -1.61450195 41.46337891 C4.00042335 45.43861724 4.00042335 45.43861724 10.64453125 45.90625 C11.75183594 45.6071875 12.85914063 45.308125 14 45 C13.41918233 39.33292586 11.90134393 34.51692357 9.83984375 29.22265625 C9.37584923 28.00563271 9.37584923 28.00563271 8.90248108 26.76402283 C7.92094338 24.19418741 6.92940379 21.6283497 5.9375 19.0625 C5.26691167 17.31210414 4.5969829 15.56145544 3.92773438 13.81054688 C2.29277194 9.53740185 0.64883326 5.26781097 -1 1 C-4.76687864 1 -5.91190305 1.23537317 -9 3 Z " fill="#EBE7C0" transform="translate(167,119)"/>
<path d="M0 0 C1.59571237 3.88086816 3.16040259 7.77255113 4.69970703 11.67602539 C5.22525065 12.9969387 5.75855367 14.31479633 6.30029297 15.62915039 C9.89683831 24.37362659 12.27842456 32.38699202 11 42 C8.06062748 48.33095619 3.09127957 52.43077224 -3.375 54.8125 C-8.45406358 56.28432245 -13.08824971 57.29351978 -18.13671875 55.05078125 C-25.86236256 50.52392527 -28.87893214 44.56136693 -32 36.4375 C-32.34740234 35.5515918 -32.69480469 34.66568359 -33.05273438 33.75292969 C-35.58529351 27.23622264 -37.93579255 20.6815136 -40 14 C-33.69703463 10.96972819 -33.69703463 10.96972819 -31.04370117 11.08496094 C-29 12 -29 12 -27.61547852 14.62036133 C-27.20740967 15.7627124 -26.79934082 16.90506348 -26.37890625 18.08203125 C-26.03894875 18.99791267 -26.03894875 18.99791267 -25.69212341 19.93229675 C-24.9670355 21.8871859 -24.26253346 23.84851055 -23.5625 25.8125 C-22.64388639 28.38837015 -21.70514967 30.95555782 -20.75390625 33.51953125 C-20.34470947 34.66526611 -19.9355127 35.81100098 -19.51391602 36.99145508 C-17.80986232 40.37785303 -16.14742988 41.93348354 -13 44 C-9.10089714 44.58087193 -5.83121204 43.49872722 -2.5 41.5 C-0.25484184 37.75806973 -0.46337856 34.20624481 -1 30 C-2.24480389 25.96158378 -3.88056926 22.12368893 -5.5625 18.25 C-6.42982236 16.23944713 -7.28579016 14.22394814 -8.12890625 12.203125 C-8.51119385 11.32301758 -8.89348145 10.44291016 -9.28735352 9.53613281 C-10.11693465 6.58385846 -9.97577053 4.89195987 -9 2 C-5.72271751 0.13992075 -3.8340246 0 0 0 Z M-9 4 C-7.89736164 7.16720086 -6.79260621 10.33365947 -5.6875 13.5 C-5.2244043 14.8303125 -5.2244043 14.8303125 -4.75195312 16.1875 C-3.31600875 20.29883549 -1.85962063 24.39352794 -0.29296875 28.45703125 C1.42428521 33.16261838 1.83989663 36.15222741 -0.25 40.75 C-2.17542891 43.22555146 -3.01077355 44.11131106 -6 45 C-12.93398235 45.66037927 -12.93398235 45.66037927 -16.56640625 43.41015625 C-19.52129049 40.48372996 -20.56208259 37.95549798 -22 34.0625 C-22.24637207 33.40950928 -22.49274414 32.75651855 -22.74658203 32.08374023 C-23.25544731 30.73258704 -23.75819131 29.37911312 -24.25488281 28.0234375 C-25.42190817 24.85426772 -26.65294718 21.71083948 -27.875 18.5625 C-28.58438311 16.70873471 -29.29313891 14.85472843 -30 13 C-32.3431213 13.25561323 -34.67843403 13.59270772 -37 14 C-38.29816794 16.03933723 -38.29816794 16.03933723 -37.29077148 18.57861328 C-36.02034961 22.09951949 -34.73974376 25.61571866 -33.4375 29.125 C-33.00630859 30.33671875 -32.57511719 31.5484375 -32.13085938 32.796875 C-29.21659253 40.70026337 -26.08043355 47.2693179 -19.8125 53 C-13.29676038 55.31670742 -6.01765459 54.73484781 0.28515625 51.9765625 C5.15983893 49.20054731 8.1026175 45.19283632 10 40 C10.84772349 31.51411484 8.13676449 24.89285715 5.0625 17.0625 C4.35963867 15.21688477 4.35963867 15.21688477 3.64257812 13.33398438 C1.50566442 7.58751224 1.50566442 7.58751224 -1 2 C-4.76687864 2 -5.91190305 2.23537317 -9 4 Z " fill="#EDE8C1" transform="translate(124,134)"/>
<path d="M0 0 C3.90214795 3.10398132 6.20064605 6.35956087 8 11 C8.3125 14.25 8.3125 14.25 8 17 C6 19 6 19 2.1875 19.375 C-0.82741538 19.27668754 -2.06413936 18.96579234 -4.8125 17.5 C-8.71172439 13.04374355 -10.09395432 8.97304079 -9.8125 3.0625 C-9.544375 2.051875 -9.27625 1.04125 -9 0 C-5.77509551 -1.61245225 -3.43772273 -0.81573082 0 0 Z " fill="#E60819" transform="translate(197,125)"/>
<path d="M0 0 C3.90214795 3.10398132 6.20064605 6.35956087 8 11 C8.3125 14.25 8.3125 14.25 8 17 C6 19 6 19 2.1875 19.375 C-0.82741538 19.27668754 -2.06413936 18.96579234 -4.8125 17.5 C-8.71172439 13.04374355 -10.09395432 8.97304079 -9.8125 3.0625 C-9.544375 2.051875 -9.27625 1.04125 -9 0 C-5.77509551 -1.61245225 -3.43772273 -0.81573082 0 0 Z M-7 2 C-7.42004622 8.09067026 -7.0566405 11.10816881 -3 16 C-0.29120665 17.35439668 2.00933268 17.06501451 5 17 C5.42004622 10.90932974 5.0566405 7.89183119 1 3 C-1.70879335 1.64560332 -4.00933268 1.93498549 -7 2 Z " fill="#EBDCDC" transform="translate(197,125)"/>
<path d="M0 0 C2.61627165 2.61627165 2.77669287 4.35265021 3 8 C1.6875 9.875 1.6875 9.875 0 11 C-0.66 11 -1.32 11 -2 11 C-2.66 8.69 -3.32 6.38 -4 4 C-2.68 2.68 -1.36 1.36 0 0 Z " fill="#524F4F" transform="translate(154,122)"/>
<path d="M0 0 C2.61627165 2.61627165 2.77669287 4.35265021 3 8 C1.6875 9.875 1.6875 9.875 0 11 C-0.66 11 -1.32 11 -2 11 C-2.66 8.69 -3.32 6.38 -4 4 C-2.68 2.68 -1.36 1.36 0 0 Z " fill="#535050" transform="translate(88,165)"/>
<path d="M0 0 C0.66 0.33 1.32 0.66 2 1 C2.8125 4.375 2.8125 4.375 3 8 C1.6875 9.9375 1.6875 9.9375 0 11 C-0.66 11 -1.32 11 -2 11 C-2.96891192 5.62694301 -2.96891192 5.62694301 -3 3 C-1.5625 1 -1.5625 1 0 0 Z " fill="#514F4F" transform="translate(111,138)"/>
<path d="M0 0 C1.9375 0.75 1.9375 0.75 4 2 C4.75 4.125 4.75 4.125 5 6 C2.525 7.485 2.525 7.485 0 9 C-1.32 7.35 -2.64 5.7 -4 4 C-2.68 2.68 -1.36 1.36 0 0 Z " fill="#535050" transform="translate(204,121)"/>
<path d="M0 0 C2.1385485 2.1385485 2.42655063 3.13275314 3 6 C-0.08809695 7.76462683 -1.23312136 8 -5 8 C-4.45773019 4.20411134 -2.79872437 2.52788007 0 0 Z " fill="#14140E" transform="translate(116,146)"/>
<path d="M0 0 C2.56154952 3.84232428 3.36082732 6.76943114 2.61328125 11.390625 C2.12152765 13.60874764 1.58991274 15.80610963 1 18 C0.67 18 0.34 18 0 18 C0 12.06 0 6.12 0 0 Z " fill="#372927" transform="translate(76,161)"/>
<path d="M0 0 C0.66 0 1.32 0 2 0 C1.75 1.875 1.75 1.875 1 4 C-1.0625 5.25 -1.0625 5.25 -3 6 C-2.42655063 3.13275314 -2.1385485 2.1385485 0 0 Z " fill="#4E4C4C" transform="translate(91,175)"/>
<path d="M0 0 C0.66 0 1.32 0 2 0 C1.75 1.875 1.75 1.875 1 4 C-1.0625 5.25 -1.0625 5.25 -3 6 C-2.42655063 3.13275314 -2.1385485 2.1385485 0 0 Z " fill="#504D4D" transform="translate(114,148)"/>
<path d="M0 0 C0.66 0 1.32 0 2 0 C1.75 1.875 1.75 1.875 1 4 C-1.0625 5.25 -1.0625 5.25 -3 6 C-2.42655063 3.13275314 -2.1385485 2.1385485 0 0 Z " fill="#4F4D4C" transform="translate(157,132)"/>
<path d="M0 0 C0.33 0.99 0.66 1.98 1 3 C-0.32 3.99 -1.64 4.98 -3 6 C-2.42655063 3.13275314 -2.1385485 2.1385485 0 0 Z " fill="#585656" transform="translate(209,129)"/>
<path d="M0 0 C0.66 0.33 1.32 0.66 2 1 C1.67 1.99 1.34 2.98 1 4 C0.34 3.34 -0.32 2.68 -1 2 C-0.67 1.34 -0.34 0.68 0 0 Z " fill="#555446" transform="translate(94,142)"/>
</svg>
